<?xml version="1.0" encoding="UTF-8"?>
<svg xmlns="http://www.w3.org/2000/svg" xmlns:xlink="http://www.w3.org/1999/xlink" width="841.89pt" height="595.276pt" viewBox="0 0 841.89 595.276"><rect width="100%" height="100%" fill="white"/>
<defs>
<g>
<g id="glyph-0-0">
<path d="M 2.75 0 L 10.65625 0 C 16.40625 0 19.15625 -2.75 19.15625 -6.75 C 19.15625 -10.21875 16.84375 -12.15625 14.53125 -12.765625 C 16.0625 -13.515625 17.59375 -15.171875 17.59375 -17.71875 C 17.59375 -21.015625 15.25 -23.765625 11 -23.765625 L 2.75 -23.765625 C 2.4375 -23.765625 2.234375 -23.5625 2.234375 -23.265625 L 2.234375 -0.515625 C 2.234375 -0.203125 2.4375 0 2.75 0 Z M 7.53125 -14.46875 L 7.53125 -19.046875 L 9.875 -19.046875 C 11.515625 -19.046875 12.53125 -18.46875 12.53125 -16.84375 C 12.53125 -15.109375 11.515625 -14.46875 9.875 -14.46875 Z M 7.53125 -4.71875 L 7.53125 -10.28125 L 10.328125 -10.28125 C 12.328125 -10.28125 13.6875 -9.546875 13.6875 -7.53125 C 13.6875 -5.5625 12.328125 -4.71875 10.328125 -4.71875 Z M 7.53125 -4.71875 "/>
</g>
<g id="glyph-0-1">
<path d="M 2.40625 0 L 6.546875 0 C 6.859375 0 7.09375 -0.203125 7.09375 -0.515625 L 7.09375 -8.515625 C 7.09375 -11 8.390625 -12.359375 10.53125 -12.359375 C 11.03125 -12.359375 11.40625 -12.296875 11.75 -12.1875 C 12.21875 -12.09375 12.453125 -12.1875 12.453125 -12.625 L 12.453125 -15.921875 C 12.453125 -16.234375 12.390625 -16.4375 12.15625 -16.609375 C 11.890625 -16.8125 11.4375 -17.046875 10.625 -17.046875 C 8.6875 -17.046875 7.640625 -15.6875 7.09375 -13.890625 L 6.921875 -16.09375 C 6.921875 -16.5 6.71875 -16.640625 6.421875 -16.640625 L 2.40625 -16.640625 C 2.109375 -16.640625 1.90625 -16.4375 1.90625 -16.125 L 1.90625 -0.515625 C 1.90625 -0.203125 2.109375 0 2.40625 0 Z M 2.40625 0 "/>
</g>
<g id="glyph-0-2">
<path d="M 8.859375 0.40625 C 11.234375 0.40625 12.9375 -0.546875 14.0625 -2.140625 L 14.125 -0.515625 C 14.125 -0.203125 14.359375 0 14.671875 0 L 18.40625 0 C 18.703125 0 18.984375 -0.203125 18.984375 -0.515625 L 18.984375 -16.125 C 18.984375 -16.4375 18.734375 -16.640625 18.4375 -16.640625 L 14.671875 -16.640625 C 14.359375 -16.640625 14.125 -16.4375 14.125 -16.125 L 14.0625 -14.53125 C 12.96875 -16.09375 11.3125 -17.046875 8.859375 -17.046875 C 4.25 -17.046875 1.046875 -13.234375 1.046875 -8.3125 C 1.046875 -3.359375 4.25 0.40625 8.859375 0.40625 Z M 9.984375 -4.3125 C 7.78125 -4.3125 6.109375 -5.875 6.109375 -8.3125 C 6.109375 -10.734375 7.78125 -12.328125 9.984375 -12.328125 C 12.25 -12.328125 13.8125 -10.734375 13.8125 -8.359375 C 13.8125 -5.90625 12.25 -4.3125 9.984375 -4.3125 Z M 9.984375 -4.3125 "/>
</g>
<g id="glyph-0-3">
<path d="M 2.40625 0 L 6.546875 0 C 6.859375 0 7.09375 -0.203125 7.09375 -0.515625 L 7.09375 -8.9375 C 7.09375 -11.140625 8.1875 -12.296875 9.984375 -12.296875 C 11.8125 -12.296875 12.765625 -11.140625 12.765625 -8.9375 L 12.765625 -0.515625 C 12.765625 -0.203125 13 0 13.3125 0 L 17.421875 0 C 17.71875 0 17.96875 -0.203125 17.96875 -0.515625 L 17.96875 -10.15625 C 17.96875 -14.5 15.421875 -17.046875 11.953125 -17.046875 C 9.578125 -17.046875 8.046875 -15.859375 7.09375 -14.15625 L 6.921875 -16.09375 C 6.921875 -16.5 6.71875 -16.640625 6.421875 -16.640625 L 2.40625 -16.640625 C 2.109375 -16.640625 1.90625 -16.4375 1.90625 -16.125 L 1.90625 -0.515625 C 1.90625 -0.203125 2.109375 0 2.40625 0 Z M 2.40625 0 "/>
</g>
<g id="glyph-0-4">
<path d="M 8.859375 0.40625 C 11.234375 0.40625 12.9375 -0.546875 14.0625 -2.140625 L 14.125 -0.515625 C 14.125 -0.203125 14.359375 0 14.671875 0 L 18.40625 0 C 18.703125 0 18.984375 -0.203125 18.984375 -0.515625 L 18.984375 -23.765625 C 18.984375 -24.078125 18.734375 -24.28125 18.4375 -24.28125 L 14.265625 -24.28125 C 13.953125 -24.28125 13.75 -24.078125 13.75 -23.765625 L 13.75 -14.96875 C 12.625 -16.296875 11.03125 -17.046875 8.859375 -17.046875 C 4.25 -17.046875 1.046875 -13.234375 1.046875 -8.3125 C 1.046875 -3.359375 4.25 0.40625 8.859375 0.40625 Z M 9.984375 -4.3125 C 7.78125 -4.3125 6.109375 -5.875 6.109375 -8.3125 C 6.109375 -10.734375 7.78125 -12.328125 9.984375 -12.328125 C 12.25 -12.328125 13.8125 -10.734375 13.8125 -8.359375 C 13.8125 -5.90625 12.25 -4.3125 9.984375 -4.3125 Z M 9.984375 -4.3125 "/>
</g>
<g id="glyph-0-5">
</g>
<g id="glyph-0-6">
<path d="M 11.265625 0.4375 C 16.640625 0.4375 20.46875 -2.859375 20.46875 -9.296875 L 20.46875 -23.265625 C 20.46875 -23.5625 20.265625 -23.765625 19.96875 -23.765625 L 15.625 -23.765625 C 15.3125 -23.765625 15.109375 -23.5625 15.109375 -23.265625 L 15.109375 -9.375 C 15.109375 -6.484375 13.71875 -4.828125 11.265625 -4.828125 C 8.796875 -4.828125 7.4375 -6.484375 7.4375 -9.375 L 7.4375 -23.265625 C 7.4375 -23.5625 7.234375 -23.765625 6.921875 -23.765625 L 2.578125 -23.765625 C 2.28125 -23.765625 2.078125 -23.5625 2.078125 -23.265625 L 2.078125 -9.296875 C 2.078125 -2.859375 5.875 0.4375 11.265625 0.4375 Z M 11.265625 0.4375 "/>
</g>
<g id="glyph-0-7">
<path d="M 7.734375 0.40625 C 11.109375 0.40625 14.0625 -1.359375 14.09375 -4.78125 C 14.15625 -7.296875 12.5 -8.765625 10.421875 -9.578125 L 7.90625 -10.5625 C 7.171875 -10.859375 6.59375 -11.3125 6.59375 -11.921875 C 6.59375 -12.421875 6.890625 -13 7.90625 -13 C 8.828125 -13 9.75 -12.53125 10.828125 -11.6875 C 11.140625 -11.46875 11.375 -11.4375 11.609375 -11.6875 L 13.34375 -13.71875 C 13.484375 -13.921875 13.578125 -14.1875 13.375 -14.4375 C 11.921875 -16.125 9.84375 -17.046875 7.640625 -17.046875 C 4.453125 -17.046875 1.65625 -15.171875 1.65625 -11.921875 C 1.65625 -9.609375 3.09375 -8.1875 5.265625 -7.328125 L 7.4375 -6.453125 C 8.5625 -6.015625 8.9375 -5.640625 8.9375 -4.984375 C 8.9375 -4.25 8.3125 -3.90625 7.40625 -3.90625 C 6.21875 -3.90625 5.09375 -4.40625 3.640625 -5.46875 C 3.359375 -5.640625 3.0625 -5.734375 2.78125 -5.296875 L 1.421875 -3.390625 C 1.1875 -3.0625 1.15625 -2.640625 1.328125 -2.40625 C 2.71875 -0.75 4.921875 0.40625 7.734375 0.40625 Z M 7.734375 0.40625 "/>
</g>
<g id="glyph-0-8">
<path d="M 9.8125 6.953125 C 13.859375 6.953125 18.671875 5.15625 18.671875 -0.984375 L 18.671875 -16.125 C 18.671875 -16.4375 18.46875 -16.640625 18.171875 -16.640625 L 14.359375 -16.640625 C 14.0625 -16.640625 13.859375 -16.4375 13.859375 -16.125 L 13.75 -14.84375 C 12.734375 -16.234375 11.171875 -17.046875 8.828125 -17.046875 C 4.140625 -17.046875 1.046875 -13.578125 1.046875 -8.71875 C 1.046875 -3.796875 4.140625 -0.375 8.796875 -0.375 C 11.0625 -0.375 12.703125 -1.1875 13.71875 -2.546875 L 13.71875 -0.984375 C 13.71875 1.875 11.4375 2.75 9.296875 2.75 C 7.875 2.75 6.453125 2.34375 4.953125 1.5625 C 4.546875 1.328125 4.25 1.5 4.046875 1.875 L 2.984375 3.9375 C 2.78125 4.28125 2.8125 4.71875 3.15625 4.953125 C 4.890625 6.28125 7.296875 6.953125 9.8125 6.953125 Z M 9.84375 -5.03125 C 7.671875 -5.03125 6.109375 -6.453125 6.109375 -8.71875 C 6.109375 -10.96875 7.671875 -12.390625 9.84375 -12.390625 C 11.984375 -12.390625 13.515625 -10.96875 13.515625 -8.71875 C 13.515625 -6.453125 11.984375 -5.03125 9.84375 -5.03125 Z M 9.84375 -5.03125 "/>
</g>
<g id="glyph-0-9">
<path d="M 10.21875 0.40625 C 12.5625 0.40625 14.703125 -0.265625 16.125 -1.703125 C 16.4375 -1.96875 16.4375 -2.234375 16.296875 -2.4375 L 14.90625 -4.40625 C 14.703125 -4.65625 14.5625 -4.71875 14.296875 -4.578125 C 12.90625 -3.796875 11.75 -3.671875 10.625 -3.671875 C 8.25 -3.671875 6.6875 -4.546875 6.109375 -6.34375 L 15.6875 -6.34375 C 17.21875 -6.34375 17.65625 -7.375 17.65625 -9.0625 C 17.65625 -13.34375 14.703125 -17.046875 9.609375 -17.046875 C 4.484375 -17.046875 1.046875 -13.28125 1.046875 -8.390625 C 1.046875 -3.328125 4.75 0.40625 10.21875 0.40625 Z M 6.046875 -9.953125 C 6.453125 -11.921875 7.90625 -12.765625 9.640625 -12.765625 C 11.375 -12.765625 12.703125 -11.953125 13.03125 -9.953125 Z M 6.046875 -9.953125 "/>
</g>
<g id="glyph-0-10">
<path d="M 13.921875 0.4375 C 20.71875 0.4375 24.8125 -4.625 24.8125 -10.796875 L 24.8125 -13.234375 C 24.8125 -13.546875 24.609375 -13.75 24.3125 -13.75 L 14.015625 -13.75 C 13.71875 -13.75 13.515625 -13.546875 13.515625 -13.234375 L 13.515625 -9.546875 C 13.515625 -9.234375 13.71875 -9 14.015625 -9 L 19.6875 -9 C 19.484375 -6.75 17.515625 -4.828125 14.09375 -4.828125 C 9.953125 -4.828125 7 -7.734375 7 -11.78125 C 7 -15.828125 9.953125 -18.78125 13.8125 -18.78125 C 15.828125 -18.78125 17.453125 -18.03125 18.734375 -16.90625 C 19.015625 -16.703125 19.28125 -16.703125 19.5625 -17.015625 L 22.0625 -19.6875 C 22.375 -20.03125 22.375 -20.34375 22.109375 -20.640625 C 20.0625 -22.75 17.25 -24.03125 13.78125 -24.03125 C 7.0625 -24.03125 1.5625 -18.78125 1.5625 -11.78125 C 1.5625 -4.78125 7.0625 0.4375 13.921875 0.4375 Z M 13.921875 0.4375 "/>
</g>
<g id="glyph-0-11">
<path d="M 7.875 0.40625 C 10.28125 0.40625 11.8125 -0.78125 12.765625 -2.484375 L 12.90625 -0.546875 C 12.90625 -0.140625 13.140625 0 13.453125 0 L 17.421875 0 C 17.71875 0 17.96875 -0.203125 17.96875 -0.515625 L 17.96875 -16.125 C 17.96875 -16.4375 17.71875 -16.640625 17.421875 -16.640625 L 13.3125 -16.640625 C 13 -16.640625 12.765625 -16.4375 12.765625 -16.125 L 12.765625 -7.703125 C 12.765625 -5.5 11.640625 -4.34375 9.875 -4.34375 C 8.046875 -4.34375 7.09375 -5.5 7.09375 -7.703125 L 7.09375 -16.125 C 7.09375 -16.4375 6.859375 -16.640625 6.546875 -16.640625 L 2.40625 -16.640625 C 2.109375 -16.640625 1.90625 -16.4375 1.90625 -16.125 L 1.90625 -6.484375 C 1.90625 -2.140625 4.40625 0.40625 7.875 0.40625 Z M 7.875 0.40625 "/>
</g>
<g id="glyph-0-12">
<path d="M 4.546875 -19.28125 C 6.171875 -19.28125 7.375 -20.546875 7.375 -22.140625 C 7.375 -23.703125 6.171875 -24.953125 4.546875 -24.953125 C 2.921875 -24.953125 1.703125 -23.703125 1.703125 -22.140625 C 1.703125 -20.546875 2.921875 -19.28125 4.546875 -19.28125 Z M 2.4375 0 L 6.65625 0 C 6.953125 0 7.171875 -0.203125 7.171875 -0.515625 L 7.171875 -16.125 C 7.171875 -16.4375 6.953125 -16.640625 6.65625 -16.640625 L 2.4375 -16.640625 C 2.140625 -16.640625 1.9375 -16.4375 1.9375 -16.125 L 1.9375 -0.515625 C 1.9375 -0.203125 2.140625 0 2.4375 0 Z M 2.4375 0 "/>
</g>
<g id="glyph-0-13">
<path d="M 2.40625 0 L 6.59375 0 C 6.890625 0 7.125 -0.203125 7.125 -0.515625 L 7.125 -23.765625 C 7.125 -24.078125 6.890625 -24.28125 6.59375 -24.28125 L 2.40625 -24.28125 C 2.109375 -24.28125 1.90625 -24.078125 1.90625 -23.765625 L 1.90625 -0.515625 C 1.90625 -0.203125 2.109375 0 2.40625 0 Z M 2.40625 0 "/>
</g>
<g id="glyph-1-0">
<path d="M 3.375 0 L 5.015625 0 C 5.109375 0 5.203125 -0.046875 5.234375 -0.140625 L 8.015625 -8.1875 C 8.0625 -8.3125 8 -8.390625 7.875 -8.390625 L 6.265625 -8.390625 C 6.171875 -8.390625 6.09375 -8.359375 6.0625 -8.25 L 4.1875 -2.40625 L 2.328125 -8.25 C 2.28125 -8.359375 2.21875 -8.390625 2.125 -8.390625 L 0.53125 -8.390625 C 0.390625 -8.390625 0.328125 -8.3125 0.375 -8.1875 L 3.15625 -0.140625 C 3.1875 -0.046875 3.28125 0 3.375 0 Z M 3.375 0 "/>
</g>
<g id="glyph-1-1">
<path d="M 0.96875 0 L 5.28125 0 C 5.390625 0 5.484375 -0.078125 5.484375 -0.1875 L 5.484375 -1.5 C 5.484375 -1.609375 5.390625 -1.671875 5.28125 -1.671875 L 2.6875 -1.671875 L 2.6875 -3.390625 L 5.140625 -3.390625 C 5.25 -3.390625 5.328125 -3.46875 5.328125 -3.578125 L 5.328125 -4.890625 C 5.328125 -5 5.25 -5.0625 5.140625 -5.0625 L 2.6875 -5.0625 L 2.6875 -6.71875 L 5.296875 -6.71875 C 5.40625 -6.71875 5.484375 -6.78125 5.484375 -6.890625 L 5.484375 -8.203125 C 5.484375 -8.3125 5.40625 -8.390625 5.296875 -8.390625 L 0.96875 -8.390625 C 0.859375 -8.390625 0.796875 -8.3125 0.796875 -8.203125 L 0.796875 -0.1875 C 0.796875 -0.078125 0.859375 0 0.96875 0 Z M 0.96875 0 "/>
</g>
<g id="glyph-1-2">
<path d="M 6.8125 -0.21875 L 4.953125 -3.109375 C 6.015625 -3.515625 6.53125 -4.453125 6.53125 -5.625 C 6.53125 -7.265625 5.578125 -8.390625 3.546875 -8.390625 L 0.96875 -8.390625 C 0.859375 -8.390625 0.796875 -8.3125 0.796875 -8.203125 L 0.796875 -0.1875 C 0.796875 -0.078125 0.859375 0 0.96875 0 L 2.5 0 C 2.609375 0 2.6875 -0.078125 2.6875 -0.1875 L 2.6875 -2.890625 L 3.109375 -2.890625 L 4.828125 -0.125 C 4.875 -0.03125 4.953125 0 5.046875 0 L 6.6875 0 C 6.828125 0 6.890625 -0.078125 6.8125 -0.21875 Z M 2.6875 -6.71875 L 3.5 -6.71875 C 4.140625 -6.71875 4.71875 -6.5 4.71875 -5.625 C 4.71875 -4.765625 4.140625 -4.5625 3.5 -4.5625 L 2.6875 -4.5625 Z M 2.6875 -6.71875 "/>
</g>
<g id="glyph-1-3">
<path d="M 3.328125 0.140625 C 4.75 0.140625 6.1875 -0.609375 6.1875 -2.359375 C 6.1875 -3.796875 5.21875 -4.34375 4.34375 -4.765625 L 3.484375 -5.15625 C 2.875 -5.4375 2.546875 -5.578125 2.546875 -6.046875 C 2.546875 -6.46875 2.859375 -6.75 3.421875 -6.75 C 3.90625 -6.75 4.296875 -6.546875 4.84375 -6.09375 C 4.921875 -6.03125 5.03125 -6.0625 5.09375 -6.140625 L 5.890625 -7.09375 C 5.953125 -7.1875 5.9375 -7.296875 5.875 -7.375 C 5.171875 -8.09375 4.34375 -8.484375 3.359375 -8.484375 C 1.890625 -8.484375 0.703125 -7.640625 0.703125 -6.0625 C 0.703125 -4.75 1.546875 -4.125 2.4375 -3.734375 L 3.453125 -3.25 C 3.984375 -3.015625 4.34375 -2.859375 4.34375 -2.359375 C 4.34375 -1.828125 3.90625 -1.59375 3.296875 -1.59375 C 2.65625 -1.59375 2.203125 -1.859375 1.65625 -2.390625 C 1.546875 -2.484375 1.453125 -2.4375 1.375 -2.359375 L 0.578125 -1.453125 C 0.484375 -1.359375 0.484375 -1.265625 0.546875 -1.1875 C 1.046875 -0.515625 2 0.140625 3.328125 0.140625 Z M 3.328125 0.140625 "/>
</g>
<g id="glyph-1-4">
<path d="M 0.96875 0 L 2.5 0 C 2.609375 0 2.6875 -0.078125 2.6875 -0.1875 L 2.6875 -8.203125 C 2.6875 -8.3125 2.609375 -8.390625 2.5 -8.390625 L 0.96875 -8.390625 C 0.859375 -8.390625 0.796875 -8.3125 0.796875 -8.203125 L 0.796875 -0.1875 C 0.796875 -0.078125 0.859375 0 0.96875 0 Z M 0.96875 0 "/>
</g>
<g id="glyph-1-5">
<path d="M 4.859375 0.15625 C 7.25 0.15625 9.1875 -1.734375 9.1875 -4.15625 C 9.1875 -6.59375 7.25 -8.484375 4.859375 -8.484375 C 2.5 -8.484375 0.546875 -6.59375 0.546875 -4.15625 C 0.546875 -1.734375 2.5 0.15625 4.859375 0.15625 Z M 4.859375 -1.703125 C 3.515625 -1.703125 2.46875 -2.765625 2.46875 -4.15625 C 2.46875 -5.578125 3.515625 -6.625 4.859375 -6.625 C 6.234375 -6.625 7.265625 -5.578125 7.265625 -4.15625 C 7.265625 -2.765625 6.234375 -1.703125 4.859375 -1.703125 Z M 4.859375 -1.703125 "/>
</g>
<g id="glyph-1-6">
<path d="M 7.46875 -8.390625 L 5.9375 -8.390625 C 5.828125 -8.390625 5.75 -8.3125 5.75 -8.203125 L 5.75 -3.078125 L 2.96875 -8.265625 C 2.921875 -8.359375 2.859375 -8.390625 2.75 -8.390625 L 0.96875 -8.390625 C 0.859375 -8.390625 0.796875 -8.3125 0.796875 -8.203125 L 0.796875 -0.1875 C 0.796875 -0.078125 0.859375 0 0.96875 0 L 2.5 0 C 2.609375 0 2.6875 -0.078125 2.6875 -0.1875 L 2.6875 -5.3125 L 5.46875 -0.125 C 5.515625 -0.03125 5.578125 0 5.6875 0 L 7.46875 0 C 7.578125 0 7.640625 -0.078125 7.640625 -0.1875 L 7.640625 -8.203125 C 7.640625 -8.3125 7.578125 -8.390625 7.46875 -8.390625 Z M 7.46875 -8.390625 "/>
</g>
<g id="glyph-1-7">
</g>
<g id="glyph-1-8">
<path d="M 2.1875 0 L 3.640625 0 C 3.75 0 3.828125 -0.078125 3.828125 -0.1875 L 3.828125 -8.203125 C 3.828125 -8.3125 3.75 -8.390625 3.640625 -8.390625 L 0.59375 -8.390625 C 0.484375 -8.390625 0.40625 -8.3125 0.40625 -8.203125 L 0.40625 -7.015625 C 0.40625 -6.921875 0.484375 -6.828125 0.59375 -6.828125 L 2 -6.828125 L 2 -0.1875 C 2 -0.078125 2.078125 0 2.1875 0 Z M 2.1875 0 "/>
</g>
<g id="glyph-1-9">
<path d="M 1.53125 0.15625 C 2.140625 0.15625 2.59375 -0.328125 2.59375 -0.90625 C 2.59375 -1.515625 2.140625 -2 1.53125 -2 C 0.9375 -2 0.46875 -1.515625 0.46875 -0.90625 C 0.46875 -0.328125 0.9375 0.15625 1.53125 0.15625 Z M 1.53125 0.15625 "/>
</g>
</g>
<clipPath id="clip-0">
<path clip-rule="nonzero" d="M 0.457031 0 L 841.324219 0 L 841.324219 594.554688 L 0.457031 594.554688 Z M 0.457031 0 "/>
</clipPath>
<clipPath id="clip-1">
<path clip-rule="nonzero" d="M 229.546875 242.988281 L 609.679688 242.988281 L 609.679688 339.179688 L 229.546875 339.179688 Z M 229.546875 242.988281 "/>
</clipPath>
<clipPath id="clip-2">
<path clip-rule="nonzero" d="M 229.546875 242.988281 L 609.679688 242.988281 L 609.679688 339.179688 L 229.546875 339.179688 Z M 229.546875 242.988281 "/>
</clipPath>
</defs>
<g clip-path="url(#clip-0)">
<path fill-rule="nonzero" fill="rgb(15.699768%, 27.799988%, 48.599243%)" fill-opacity="1" d="M 0.457031 594.554688 L 841.324219 594.554688 L 841.324219 0 L 0.457031 0 Z M 0.457031 594.554688 "/>
</g>
<g clip-path="url(#clip-1)">
<path fill-rule="nonzero" fill="rgb(100%, 100%, 100%)" fill-opacity="1" d="M 589.886719 339.179688 L 249.3125 339.179688 C 238.398438 339.179688 229.519531 330.300781 229.519531 319.386719 L 229.519531 262.78125 C 229.519531 251.867188 238.398438 242.988281 249.3125 242.988281 L 609.679688 242.988281 L 609.679688 319.386719 C 609.679688 330.300781 600.800781 339.179688 589.886719 339.179688 "/>
</g>
<path fill-rule="nonzero" fill="rgb(92.683411%, 11.282349%, 15.184021%)" fill-opacity="1" d="M 509.84375 309.652344 L 509.84375 277.078125 C 509.84375 276.425781 509.082031 276.078125 508.589844 276.503906 L 504.058594 278.179688 C 503.566406 278.605469 502.804688 278.257812 502.804688 277.605469 L 502.804688 268.613281 C 502.804688 268.394531 502.898438 268.183594 503.0625 268.039062 L 509.628906 264.601562 C 509.769531 264.480469 509.945312 264.414062 510.125 264.414062 L 519.679688 264.414062 C 520.101562 264.414062 520.4375 264.753906 520.4375 265.171875 L 520.4375 309.652344 C 520.4375 310.070312 520.101562 310.410156 519.679688 310.410156 L 510.601562 310.410156 C 510.183594 310.410156 509.84375 310.070312 509.84375 309.652344 "/>
<path fill-rule="nonzero" fill="rgb(92.683411%, 11.282349%, 15.184021%)" fill-opacity="1" d="M 526.121094 309.652344 L 526.121094 301.144531 C 526.121094 300.953125 526.195312 300.773438 526.324219 300.632812 L 542.789062 282.761719 C 544.46875 280.953125 545.113281 279.789062 545.113281 277.851562 C 545.113281 275.332031 543.695312 273.589844 540.980469 273.589844 C 539.179688 273.589844 537.046875 274.367188 536.75 277.324219 C 536.710938 277.726562 536.398438 278.046875 535.996094 278.046875 L 526.90625 278.046875 C 526.476562 278.046875 526.121094 277.6875 526.140625 277.257812 C 526.523438 268.710938 533.207031 264.027344 540.980469 264.027344 C 549.507812 264.027344 555.710938 269.261719 555.710938 277.914062 C 555.710938 282.761719 553.707031 285.34375 550.023438 289.222656 L 540.25 299.574219 C 539.792969 300.054688 540.136719 300.851562 540.800781 300.851562 L 554.953125 300.851562 C 555.371094 300.851562 555.710938 301.1875 555.710938 301.605469 L 555.710938 309.652344 C 555.710938 310.070312 555.371094 310.410156 554.953125 310.410156 L 526.882812 310.410156 C 526.460938 310.410156 526.121094 310.070312 526.121094 309.652344 "/>
<path fill-rule="nonzero" fill="rgb(92.683411%, 11.282349%, 15.184021%)" fill-opacity="1" d="M 573.246094 310.796875 C 565.816406 310.796875 558.332031 306.9375 557.949219 297.179688 C 557.933594 296.753906 558.289062 296.390625 558.714844 296.390625 L 567.8125 296.390625 C 568.214844 296.390625 568.523438 296.710938 568.5625 297.109375 C 568.851562 299.863281 570.800781 301.238281 573.246094 301.238281 C 576.023438 301.238281 577.960938 299.621094 577.960938 296.328125 C 577.960938 293.550781 575.894531 291.480469 573.050781 291.480469 L 571.5625 291.480469 L 571.5625 282.308594 L 573.050781 282.308594 C 576.214844 282.308594 577.441406 280.046875 577.441406 277.980469 C 577.441406 275.074219 575.441406 273.589844 573.246094 273.589844 C 571.230469 273.589844 569.378906 274.890625 569.085938 277.246094 C 569.039062 277.621094 568.75 277.914062 568.375 277.914062 L 559.238281 277.914062 C 558.808594 277.914062 558.449219 277.554688 558.46875 277.125 C 558.859375 268.941406 565.292969 264.027344 573.246094 264.027344 C 581.769531 264.027344 588.039062 269.710938 588.039062 277.65625 C 588.039062 282.089844 586.136719 284.523438 584.097656 286.058594 C 583.703125 286.355469 583.691406 286.9375 584.078125 287.242188 C 586.34375 289.015625 588.554688 291.753906 588.554688 296.652344 C 588.554688 306.277344 581.320312 310.796875 573.246094 310.796875 "/>
<path fill-rule="nonzero" fill="rgb(27.464294%, 27.458191%, 28.900146%)" fill-opacity="1" d="M 271.976562 285.179688 C 271.292969 283.601562 269.78125 282.296875 267.101562 282.296875 C 264.421875 282.296875 262.914062 283.601562 262.226562 285.179688 C 261.898438 285.835938 261.730469 286.523438 261.65625 287.175781 C 261.601562 287.652344 261.984375 288.066406 262.464844 288.066406 L 271.742188 288.066406 C 272.21875 288.066406 272.601562 287.652344 272.546875 287.175781 C 272.472656 286.523438 272.304688 285.835938 271.976562 285.179688 M 262.488281 295.550781 C 261.980469 295.550781 261.605469 296.015625 261.6875 296.515625 C 262.132812 299.132812 264.394531 301.320312 268.132812 301.320312 C 271.667969 301.320312 273.414062 300.421875 275.1875 298.78125 C 275.507812 298.480469 276.003906 298.480469 276.3125 298.789062 L 281.90625 304.378906 C 282.222656 304.699219 282.222656 305.226562 281.894531 305.539062 C 278.3125 308.949219 274.640625 310.796875 268.132812 310.796875 C 259.960938 310.796875 250.550781 307.84375 250.550781 291.910156 C 250.550781 279.824219 257.417969 273.023438 267.101562 273.023438 C 277.816406 273.023438 283.722656 280.855469 283.722656 290.539062 L 283.722656 294.746094 C 283.722656 295.191406 283.363281 295.550781 282.917969 295.550781 Z M 262.488281 295.550781 "/>
<path fill-rule="nonzero" fill="rgb(27.464294%, 27.458191%, 28.900146%)" fill-opacity="1" d="M 304.117188 295.550781 L 298.417969 295.550781 C 296.21875 295.550781 294.847656 296.789062 294.847656 298.503906 C 294.847656 300.152344 296.082031 301.59375 298.554688 301.59375 C 300.753906 301.59375 301.78125 301.390625 303.019531 300.222656 C 303.84375 299.464844 304.117188 298.296875 304.117188 296.511719 Z M 305.199219 310.386719 C 304.753906 310.386719 304.390625 310.023438 304.390625 309.582031 L 304.390625 307.363281 C 302.125 309.628906 300.066406 310.730469 296.152344 310.730469 C 292.441406 310.730469 289.351562 309.492188 287.292969 307.433594 C 285.164062 305.304688 284.0625 302.214844 284.0625 298.78125 C 284.0625 293.214844 287.839844 288.066406 296.632812 288.066406 L 304.117188 288.066406 L 304.117188 287.105469 C 304.117188 283.738281 302.46875 282.503906 298.554688 282.503906 C 295.96875 282.503906 294.710938 283.054688 293.191406 284.453125 C 292.878906 284.738281 292.390625 284.71875 292.089844 284.417969 L 286.226562 278.554688 C 285.90625 278.234375 285.914062 277.699219 286.246094 277.390625 C 289.792969 274.070312 293.1875 273.023438 299.105469 273.023438 C 309.679688 273.023438 315.382812 277.421875 315.382812 286.417969 L 315.382812 309.582031 C 315.382812 310.023438 315.019531 310.386719 314.574219 310.386719 Z M 305.199219 310.386719 "/>
<path fill-rule="nonzero" fill="rgb(27.464294%, 27.458191%, 28.900146%)" fill-opacity="1" d="M 332.34375 310.796875 C 327 310.796875 321.785156 310.542969 316.878906 306.023438 C 316.542969 305.714844 316.539062 305.175781 316.859375 304.855469 L 323.007812 298.707031 C 323.3125 298.402344 323.792969 298.40625 324.117188 298.6875 C 327.113281 301.253906 330.742188 301.253906 332.546875 301.253906 C 334.195312 301.253906 337.355469 300.773438 337.355469 298.847656 C 337.355469 297.816406 336.875 296.71875 334.679688 296.511719 L 328.976562 295.964844 C 322.589844 295.34375 318.265625 292.460938 318.265625 285.25 C 318.265625 277.078125 325.613281 273.023438 332.960938 273.023438 C 338.667969 273.023438 343.335938 273.820312 346.902344 276.976562 C 347.246094 277.28125 347.25 277.828125 346.925781 278.152344 L 341.113281 283.964844 C 340.816406 284.261719 340.355469 284.257812 340.019531 284.003906 C 338.140625 282.578125 335.363281 282.296875 332.753906 282.296875 C 330.007812 282.296875 329.113281 283.601562 329.113281 284.425781 C 329.113281 284.839844 328.976562 286.210938 331.519531 286.484375 L 337.21875 287.035156 C 344.980469 287.792969 348.34375 292.390625 348.34375 298.296875 C 348.34375 307.019531 340.925781 310.796875 332.34375 310.796875 "/>
<path fill-rule="nonzero" fill="rgb(27.464294%, 27.458191%, 28.900146%)" fill-opacity="1" d="M 401.222656 295.550781 L 395.523438 295.550781 C 393.328125 295.550781 391.953125 296.789062 391.953125 298.503906 C 391.953125 300.152344 393.1875 301.59375 395.660156 301.59375 C 397.859375 301.59375 398.890625 301.390625 400.125 300.222656 C 400.949219 299.464844 401.222656 298.296875 401.222656 296.511719 Z M 402.304688 310.386719 C 401.859375 310.386719 401.5 310.023438 401.5 309.582031 L 401.5 307.363281 C 399.234375 309.628906 397.171875 310.730469 393.257812 310.730469 C 389.546875 310.730469 386.457031 309.492188 384.398438 307.433594 C 382.269531 305.304688 381.167969 302.214844 381.167969 298.78125 C 381.167969 293.214844 384.949219 288.066406 393.738281 288.066406 L 401.222656 288.066406 L 401.222656 287.105469 C 401.222656 283.738281 399.578125 282.503906 395.660156 282.503906 C 393.078125 282.503906 391.816406 283.054688 390.296875 284.453125 C 389.984375 284.738281 389.496094 284.71875 389.199219 284.417969 L 383.335938 278.554688 C 383.015625 278.234375 383.019531 277.699219 383.351562 277.390625 C 386.902344 274.070312 390.292969 273.023438 396.210938 273.023438 C 406.785156 273.023438 412.488281 277.421875 412.488281 286.417969 L 412.488281 309.582031 C 412.488281 310.023438 412.125 310.386719 411.683594 310.386719 Z M 402.304688 310.386719 "/>
<path fill-rule="nonzero" fill="rgb(27.464294%, 27.458191%, 28.900146%)" fill-opacity="1" d="M 435.957031 310.386719 C 435.507812 310.386719 435.148438 310.027344 435.148438 309.582031 L 435.148438 307.363281 C 432.882812 309.632812 429.519531 310.796875 426.566406 310.796875 C 423.0625 310.796875 420.246094 309.632812 418.253906 307.636719 C 415.09375 304.480469 414.546875 300.976562 414.546875 297.0625 L 414.546875 274.242188 C 414.546875 273.796875 414.90625 273.4375 415.351562 273.4375 L 425.003906 273.4375 C 425.449219 273.4375 425.808594 273.796875 425.808594 274.242188 L 425.808594 295.550781 C 425.808594 299.808594 428.832031 300.632812 430.34375 300.632812 C 431.851562 300.632812 434.875 299.808594 434.875 295.550781 L 434.875 274.242188 C 434.875 273.796875 435.234375 273.4375 435.679688 273.4375 L 445.332031 273.4375 C 445.777344 273.4375 446.136719 273.796875 446.136719 274.242188 L 446.136719 309.582031 C 446.136719 310.027344 445.777344 310.386719 445.332031 310.386719 Z M 435.957031 310.386719 "/>
<path fill-rule="nonzero" fill="rgb(27.464294%, 27.458191%, 28.900146%)" fill-opacity="1" d="M 462.824219 310.386719 C 454.652344 310.386719 451.355469 304.546875 451.355469 299.464844 L 451.355469 282.089844 L 448.796875 282.089844 C 448.351562 282.089844 447.992188 281.730469 447.992188 281.285156 L 447.992188 274.242188 C 447.992188 273.796875 448.351562 273.4375 448.796875 273.4375 L 451.355469 273.4375 L 451.355469 265.109375 C 451.355469 264.664062 451.71875 264.304688 452.160156 264.304688 L 461.816406 264.304688 C 462.257812 264.304688 462.621094 264.664062 462.621094 265.109375 L 462.621094 273.4375 L 467.652344 273.4375 C 468.097656 273.4375 468.457031 273.796875 468.457031 274.242188 L 468.457031 281.285156 C 468.457031 281.730469 468.097656 282.089844 467.652344 282.089844 L 462.621094 282.089844 L 462.621094 298.640625 C 462.621094 300.085938 463.375 300.910156 464.886719 300.910156 L 467.652344 300.910156 C 468.097656 300.910156 468.457031 301.269531 468.457031 301.714844 L 468.457031 309.582031 C 468.457031 310.027344 468.097656 310.386719 467.652344 310.386719 Z M 462.824219 310.386719 "/>
<path fill-rule="nonzero" fill="rgb(27.464294%, 27.458191%, 28.900146%)" fill-opacity="1" d="M 488.992188 284.21875 C 488.304688 283.535156 487.34375 283.191406 485.96875 283.191406 C 484.59375 283.191406 483.632812 283.535156 482.945312 284.21875 C 481.503906 285.660156 481.296875 288.273438 481.296875 291.910156 C 481.296875 295.550781 481.503906 298.160156 482.945312 299.605469 C 483.632812 300.292969 484.59375 300.632812 485.96875 300.632812 C 487.34375 300.632812 488.304688 300.292969 488.992188 299.605469 C 490.433594 298.160156 490.640625 295.550781 490.640625 291.910156 C 490.640625 288.273438 490.433594 285.660156 488.992188 284.21875 M 497.847656 306.058594 C 495.652344 308.394531 491.941406 310.796875 485.96875 310.796875 C 479.992188 310.796875 476.285156 308.394531 474.085938 306.058594 C 470.996094 302.695312 470.035156 299.191406 470.035156 291.910156 C 470.035156 284.699219 470.996094 281.128906 474.085938 277.761719 C 476.285156 275.429688 479.992188 273.023438 485.96875 273.023438 C 491.941406 273.023438 495.652344 275.429688 497.847656 277.761719 C 500.941406 281.128906 501.902344 284.699219 501.902344 291.910156 C 501.902344 299.191406 500.941406 302.695312 497.847656 306.058594 "/>
<path fill-rule="nonzero" fill="rgb(27.464294%, 27.458191%, 28.900146%)" fill-opacity="1" d="M 368.5625 312.660156 C 367.804688 314.792969 366.84375 316.371094 365.675781 317.539062 C 363.480469 319.875 360.121094 320.628906 356.824219 320.628906 L 353.371094 320.628906 C 352.925781 320.628906 352.566406 320.269531 352.566406 319.824219 L 352.566406 311.269531 C 352.566406 310.824219 352.925781 310.464844 353.371094 310.464844 L 354.96875 310.464844 C 356.960938 310.464844 358.816406 309.441406 359.648438 307.359375 C 359.648438 307.359375 359.832031 306.96875 359.652344 306.488281 L 347.855469 274.527344 C 347.660156 274.003906 348.050781 273.445312 348.613281 273.445312 L 358.683594 273.445312 C 359.03125 273.445312 359.339844 273.667969 359.449219 274 L 364.734375 290.207031 C 364.976562 290.953125 366.035156 290.945312 366.269531 290.195312 L 371.316406 274.011719 C 371.421875 273.671875 371.734375 273.445312 372.085938 273.445312 L 382.148438 273.445312 C 382.710938 273.445312 383.097656 274.003906 382.902344 274.527344 Z M 368.5625 312.660156 "/>
<g clip-path="url(#clip-2)">
<path fill-rule="nonzero" fill="rgb(97.78595%, 87.280273%, 15.30304%)" fill-opacity="1" d="M 249.3125 250.183594 C 242.367188 250.183594 236.71875 255.835938 236.71875 262.78125 L 236.71875 319.386719 C 236.71875 326.332031 242.367188 331.980469 249.3125 331.980469 L 589.886719 331.980469 C 596.832031 331.980469 602.484375 326.332031 602.484375 319.386719 L 602.484375 250.183594 Z M 589.886719 339.179688 L 249.3125 339.179688 C 238.398438 339.179688 229.519531 330.300781 229.519531 319.386719 L 229.519531 262.78125 C 229.519531 251.867188 238.398438 242.988281 249.3125 242.988281 L 609.679688 242.988281 L 609.679688 319.386719 C 609.679688 330.300781 600.800781 339.179688 589.886719 339.179688 "/>
</g>
<g fill="rgb(100%, 100%, 100%)" fill-opacity="1">
<use xlink:href="#glyph-0-0" x="246.798205" y="480.15931"/>
<use xlink:href="#glyph-0-1" x="265.95091" y="480.15931"/>
</g>
<g fill="rgb(100%, 100%, 100%)" fill-opacity="1">
<use xlink:href="#glyph-0-2" x="277.904372" y="480.15931"/>
<use xlink:href="#glyph-0-3" x="297.736252" y="480.15931"/>
<use xlink:href="#glyph-0-4" x="316.583329" y="480.15931"/>
<use xlink:href="#glyph-0-5" x="336.415209" y="480.15931"/>
<use xlink:href="#glyph-0-6" x="341.984435" y="480.15931"/>
<use xlink:href="#glyph-0-7" x="363.51425" y="480.15931"/>
</g>
<g fill="rgb(100%, 100%, 100%)" fill-opacity="1">
<use xlink:href="#glyph-0-2" x="377.637672" y="480.15931"/>
<use xlink:href="#glyph-0-8" x="397.469552" y="480.15931"/>
<use xlink:href="#glyph-0-9" x="417.029762" y="480.15931"/>
<use xlink:href="#glyph-0-5" x="434.688285" y="480.15931"/>
<use xlink:href="#glyph-0-10" x="440.257511" y="480.15931"/>
<use xlink:href="#glyph-0-11" x="465.285072" y="480.15931"/>
<use xlink:href="#glyph-0-12" x="484.132149" y="480.15931"/>
<use xlink:href="#glyph-0-4" x="492.214319" y="480.15931"/>
<use xlink:href="#glyph-0-9" x="512.046199" y="480.15931"/>
<use xlink:href="#glyph-0-13" x="529.704722" y="480.15931"/>
<use xlink:href="#glyph-0-12" x="537.685016" y="480.15931"/>
<use xlink:href="#glyph-0-3" x="545.767186" y="480.15931"/>
<use xlink:href="#glyph-0-9" x="564.614263" y="480.15931"/>
</g>
<g fill="rgb(100%, 100%, 100%)" fill-opacity="1">
<use xlink:href="#glyph-0-7" x="581.933199" y="480.15931"/>
</g>
<g fill="rgb(100%, 87.199402%, 24.699402%)" fill-opacity="1">
<use xlink:href="#glyph-1-0" x="391.771582" y="521.965463"/>
</g>
<g fill="rgb(100%, 87.199402%, 24.699402%)" fill-opacity="1">
<use xlink:href="#glyph-1-1" x="399.681961" y="521.965463"/>
<use xlink:href="#glyph-1-2" x="405.458935" y="521.965463"/>
</g>
<g fill="rgb(100%, 87.199402%, 24.699402%)" fill-opacity="1">
<use xlink:href="#glyph-1-3" x="412.002976" y="521.965463"/>
<use xlink:href="#glyph-1-4" x="418.331279" y="521.965463"/>
<use xlink:href="#glyph-1-5" x="421.447489" y="521.965463"/>
<use xlink:href="#glyph-1-6" x="430.820089" y="521.965463"/>
<use xlink:href="#glyph-1-7" x="438.898264" y="521.965463"/>
<use xlink:href="#glyph-1-8" x="440.863874" y="521.965463"/>
<use xlink:href="#glyph-1-9" x="445.034801" y="521.965463"/>
<use xlink:href="#glyph-1-8" x="447.743507" y="521.965463"/>
</g>
</svg>
