<?xml version="1.0" encoding="UTF-8"?>
<svg xmlns="http://www.w3.org/2000/svg" xmlns:xlink="http://www.w3.org/1999/xlink" width="841.89pt" height="595.276pt" viewBox="0 0 841.89 595.276"><rect width="100%" height="100%" fill="white"/>
<defs>
<g>
<g id="glyph-0-0">
<path d="M 4.984375 0 L 8.03125 0 C 8.25 0 8.390625 -0.140625 8.390625 -0.359375 L 8.390625 -13.3125 L 11.546875 -13.3125 C 11.765625 -13.3125 11.9375 -13.453125 11.9375 -13.671875 L 11.9375 -16.28125 C 11.9375 -16.5 11.765625 -16.640625 11.546875 -16.640625 L 1.453125 -16.640625 C 1.234375 -16.640625 1.09375 -16.5 1.09375 -16.28125 L 1.09375 -13.671875 C 1.09375 -13.453125 1.234375 -13.3125 1.453125 -13.3125 L 4.609375 -13.3125 L 4.609375 -0.359375 C 4.609375 -0.140625 4.78125 0 4.984375 0 Z M 4.984375 0 "/>
</g>
<g id="glyph-0-1">
<path d="M 1.921875 0 L 4.96875 0 C 5.1875 0 5.328125 -0.140625 5.328125 -0.359375 L 5.328125 -6.484375 L 11.03125 -6.484375 L 11.03125 -0.359375 C 11.03125 -0.140625 11.171875 0 11.390625 0 L 14.421875 0 C 14.640625 0 14.8125 -0.140625 14.8125 -0.359375 L 14.8125 -16.28125 C 14.8125 -16.5 14.640625 -16.640625 14.421875 -16.640625 L 11.390625 -16.640625 C 11.171875 -16.640625 11.03125 -16.5 11.03125 -16.28125 L 11.03125 -9.8125 L 5.328125 -9.8125 L 5.328125 -16.28125 C 5.328125 -16.5 5.1875 -16.640625 4.96875 -16.640625 L 1.921875 -16.640625 C 1.71875 -16.640625 1.5625 -16.5 1.5625 -16.28125 L 1.5625 -0.359375 C 1.5625 -0.140625 1.71875 0 1.921875 0 Z M 1.921875 0 "/>
</g>
<g id="glyph-0-2">
<path d="M 1.921875 0 L 10.484375 0 C 10.6875 0 10.859375 -0.140625 10.859375 -0.359375 L 10.859375 -2.96875 C 10.859375 -3.1875 10.6875 -3.328125 10.484375 -3.328125 L 5.328125 -3.328125 L 5.328125 -6.71875 L 10.203125 -6.71875 C 10.40625 -6.71875 10.546875 -6.875 10.546875 -7.078125 L 10.546875 -9.703125 C 10.546875 -9.90625 10.40625 -10.046875 10.203125 -10.046875 L 5.328125 -10.046875 L 5.328125 -13.3125 L 10.5 -13.3125 C 10.71875 -13.3125 10.859375 -13.453125 10.859375 -13.671875 L 10.859375 -16.28125 C 10.859375 -16.5 10.71875 -16.640625 10.5 -16.640625 L 1.921875 -16.640625 C 1.71875 -16.640625 1.5625 -16.5 1.5625 -16.28125 L 1.5625 -0.359375 C 1.5625 -0.140625 1.71875 0 1.921875 0 Z M 1.921875 0 "/>
</g>
<g id="glyph-0-3">
</g>
<g id="glyph-0-4">
<path d="M 1.921875 0 L 7.46875 0 C 11.484375 0 13.40625 -1.921875 13.40625 -4.734375 C 13.40625 -7.15625 11.78125 -8.515625 10.171875 -8.9375 C 11.234375 -9.453125 12.3125 -10.625 12.3125 -12.40625 C 12.3125 -14.703125 10.671875 -16.640625 7.703125 -16.640625 L 1.921875 -16.640625 C 1.71875 -16.640625 1.5625 -16.5 1.5625 -16.28125 L 1.5625 -0.359375 C 1.5625 -0.140625 1.71875 0 1.921875 0 Z M 5.28125 -10.125 L 5.28125 -13.328125 L 6.921875 -13.328125 C 8.0625 -13.328125 8.765625 -12.921875 8.765625 -11.78125 C 8.765625 -10.578125 8.0625 -10.125 6.921875 -10.125 Z M 5.28125 -3.296875 L 5.28125 -7.203125 L 7.21875 -7.203125 C 8.625 -7.203125 9.578125 -6.671875 9.578125 -5.28125 C 9.578125 -3.890625 8.625 -3.296875 7.21875 -3.296875 Z M 5.28125 -3.296875 "/>
</g>
<g id="glyph-0-5">
<path d="M 6.609375 0.28125 C 9.40625 0.28125 12.265625 -1.21875 12.265625 -4.6875 C 12.265625 -7.53125 10.359375 -8.625 8.609375 -9.453125 L 6.921875 -10.21875 C 5.703125 -10.796875 5.03125 -11.078125 5.03125 -11.984375 C 5.03125 -12.828125 5.6875 -13.375 6.765625 -13.375 C 7.75 -13.375 8.53125 -12.96875 9.59375 -12.078125 C 9.765625 -11.953125 9.984375 -12.03125 10.09375 -12.1875 L 11.671875 -14.0625 C 11.8125 -14.265625 11.78125 -14.46875 11.640625 -14.609375 C 10.265625 -16.046875 8.625 -16.828125 6.65625 -16.828125 C 3.75 -16.828125 1.40625 -15.140625 1.40625 -12.03125 C 1.40625 -9.4375 3.0625 -8.171875 4.828125 -7.390625 L 6.84375 -6.4375 C 7.890625 -5.96875 8.609375 -5.65625 8.609375 -4.6875 C 8.609375 -3.640625 7.75 -3.15625 6.53125 -3.15625 C 5.28125 -3.15625 4.375 -3.6875 3.28125 -4.75 C 3.0625 -4.921875 2.875 -4.84375 2.734375 -4.6875 L 1.140625 -2.875 C 0.96875 -2.6875 0.96875 -2.5 1.09375 -2.359375 C 2.09375 -1.015625 3.96875 0.28125 6.609375 0.28125 Z M 6.609375 0.28125 "/>
</g>
<g id="glyph-0-6">
<path d="M 5.921875 0 L 9.078125 0 C 9.3125 0 9.5 -0.09375 9.546875 -0.28125 L 12.859375 -11.875 L 16.140625 -0.28125 C 16.1875 -0.09375 16.375 0 16.609375 0 L 19.765625 0 C 19.984375 0 20.203125 -0.09375 20.25 -0.28125 L 24.953125 -16.234375 C 25.03125 -16.46875 24.9375 -16.640625 24.671875 -16.640625 L 21.484375 -16.640625 C 21.296875 -16.640625 21.125 -16.5625 21.078125 -16.34375 L 18.03125 -5.140625 L 14.703125 -16.34375 C 14.640625 -16.5625 14.515625 -16.640625 14.3125 -16.640625 L 11.390625 -16.640625 C 11.171875 -16.640625 11.046875 -16.5625 10.984375 -16.34375 L 7.65625 -5.140625 L 4.609375 -16.34375 C 4.5625 -16.5625 4.390625 -16.640625 4.203125 -16.640625 L 1.046875 -16.640625 C 0.78125 -16.640625 0.671875 -16.46875 0.765625 -16.234375 L 5.4375 -0.28125 C 5.484375 -0.09375 5.703125 0 5.921875 0 Z M 5.921875 0 "/>
</g>
<g id="glyph-0-7">
<path d="M 15.90625 -0.40625 L 10.390625 -16.34375 C 10.3125 -16.546875 10.125 -16.640625 9.9375 -16.640625 L 6.703125 -16.640625 C 6.515625 -16.640625 6.328125 -16.546875 6.25 -16.34375 L 0.734375 -0.40625 C 0.640625 -0.171875 0.78125 0 1.046875 0 L 4.203125 0 C 4.390625 0 4.546875 -0.078125 4.609375 -0.28125 L 5.328125 -2.515625 L 11.3125 -2.515625 L 12.03125 -0.28125 C 12.09375 -0.078125 12.234375 0 12.421875 0 L 15.609375 0 C 15.875 0 16 -0.171875 15.90625 -0.40625 Z M 6.390625 -5.84375 L 8.3125 -11.859375 L 10.25 -5.84375 Z M 6.390625 -5.84375 "/>
</g>
<g id="glyph-0-8">
<path d="M 6.015625 0 L 9.046875 0 C 9.265625 0 9.4375 -0.140625 9.4375 -0.359375 L 9.4375 -7.625 L 14.28125 -16.203125 C 14.421875 -16.46875 14.328125 -16.640625 14.046875 -16.640625 L 10.890625 -16.640625 C 10.6875 -16.640625 10.53125 -16.5625 10.4375 -16.390625 L 7.53125 -11.078125 L 4.640625 -16.390625 C 4.546875 -16.5625 4.390625 -16.640625 4.203125 -16.640625 L 1.046875 -16.640625 C 0.765625 -16.640625 0.671875 -16.46875 0.8125 -16.203125 L 5.65625 -7.65625 L 5.65625 -0.359375 C 5.65625 -0.140625 5.796875 0 6.015625 0 Z M 6.015625 0 "/>
</g>
<g id="glyph-0-9">
<path d="M 9.65625 0.3125 C 14.375 0.3125 18.234375 -3.453125 18.234375 -8.25 C 18.234375 -13.078125 14.375 -16.828125 9.65625 -16.828125 C 4.9375 -16.828125 1.09375 -13.078125 1.09375 -8.25 C 1.09375 -3.453125 4.9375 0.3125 9.65625 0.3125 Z M 9.65625 -3.375 C 6.96875 -3.375 4.890625 -5.484375 4.890625 -8.25 C 4.890625 -11.046875 6.96875 -13.140625 9.65625 -13.140625 C 12.359375 -13.140625 14.40625 -11.046875 14.40625 -8.25 C 14.40625 -5.484375 12.359375 -3.375 9.65625 -3.375 Z M 9.65625 -3.375 "/>
</g>
<g id="glyph-0-10">
<path d="M 7.890625 0.3125 C 11.640625 0.3125 14.328125 -2 14.328125 -6.515625 L 14.328125 -16.28125 C 14.328125 -16.5 14.1875 -16.640625 13.96875 -16.640625 L 10.9375 -16.640625 C 10.71875 -16.640625 10.578125 -16.5 10.578125 -16.28125 L 10.578125 -6.5625 C 10.578125 -4.546875 9.59375 -3.375 7.890625 -3.375 C 6.15625 -3.375 5.203125 -4.546875 5.203125 -6.5625 L 5.203125 -16.28125 C 5.203125 -16.5 5.0625 -16.640625 4.84375 -16.640625 L 1.8125 -16.640625 C 1.59375 -16.640625 1.453125 -16.5 1.453125 -16.28125 L 1.453125 -6.515625 C 1.453125 -2 4.109375 0.3125 7.890625 0.3125 Z M 7.890625 0.3125 "/>
</g>
<g id="glyph-0-11">
<path d="M 14.8125 -16.640625 L 11.765625 -16.640625 C 11.546875 -16.640625 11.40625 -16.5 11.40625 -16.28125 L 11.40625 -6.109375 L 5.890625 -16.390625 C 5.796875 -16.5625 5.65625 -16.640625 5.46875 -16.640625 L 1.921875 -16.640625 C 1.71875 -16.640625 1.5625 -16.5 1.5625 -16.28125 L 1.5625 -0.359375 C 1.5625 -0.140625 1.71875 0 1.921875 0 L 4.96875 0 C 5.1875 0 5.328125 -0.140625 5.328125 -0.359375 L 5.328125 -10.53125 L 10.84375 -0.234375 C 10.9375 -0.078125 11.078125 0 11.265625 0 L 14.8125 0 C 15.015625 0 15.15625 -0.140625 15.15625 -0.359375 L 15.15625 -16.28125 C 15.15625 -16.5 15.015625 -16.640625 14.8125 -16.640625 Z M 14.8125 -16.640625 "/>
</g>
<g id="glyph-0-12">
<path d="M 1.921875 0 L 7.078125 0 C 12.625 0 15.59375 -3.65625 15.59375 -8.3125 C 15.59375 -12.96875 12.625 -16.640625 7.078125 -16.640625 L 1.921875 -16.640625 C 1.71875 -16.640625 1.5625 -16.5 1.5625 -16.28125 L 1.5625 -0.359375 C 1.5625 -0.140625 1.71875 0 1.921875 0 Z M 5.328125 -3.328125 L 5.328125 -13.3125 L 7.03125 -13.3125 C 10.140625 -13.3125 11.765625 -11.546875 11.765625 -8.3125 C 11.765625 -5.078125 10.140625 -3.328125 7.03125 -3.328125 Z M 5.328125 -3.328125 "/>
</g>
<g id="glyph-0-13">
<path d="M 10.171875 -3.328125 L 5.328125 -3.328125 L 5.328125 -16.28125 C 5.328125 -16.5 5.1875 -16.640625 4.96875 -16.640625 L 1.921875 -16.640625 C 1.71875 -16.640625 1.5625 -16.5 1.5625 -16.28125 L 1.5625 -0.359375 C 1.5625 -0.140625 1.71875 0 1.921875 0 L 10.171875 0 C 10.390625 0 10.53125 -0.140625 10.53125 -0.359375 L 10.53125 -2.96875 C 10.53125 -3.1875 10.390625 -3.328125 10.171875 -3.328125 Z M 10.171875 -3.328125 "/>
</g>
<g id="glyph-0-14">
<path d="M 9.671875 0.3125 C 12.078125 0.3125 14.0625 -0.640625 15.546875 -2.15625 C 15.703125 -2.328125 15.65625 -2.5 15.546875 -2.640625 L 13.640625 -4.65625 C 13.5 -4.828125 13.3125 -4.828125 13.140625 -4.703125 C 12.21875 -3.890625 11.078125 -3.375 9.703125 -3.375 C 6.96875 -3.375 4.890625 -5.4375 4.890625 -8.25 C 4.890625 -11.078125 6.96875 -13.140625 9.703125 -13.140625 C 11.078125 -13.140625 12.21875 -12.625 13.140625 -11.8125 C 13.3125 -11.6875 13.5 -11.6875 13.640625 -11.859375 L 15.546875 -13.875 C 15.65625 -14.015625 15.703125 -14.1875 15.546875 -14.359375 C 14.0625 -15.875 12.078125 -16.828125 9.671875 -16.828125 C 4.96875 -16.828125 1.09375 -13.140625 1.09375 -8.25 C 1.09375 -3.34375 4.96875 0.3125 9.671875 0.3125 Z M 9.671875 0.3125 "/>
</g>
<g id="glyph-0-15">
<path d="M 13.5 -0.421875 L 9.8125 -6.171875 C 11.9375 -6.984375 12.953125 -8.8125 12.953125 -11.171875 C 12.953125 -14.40625 11.046875 -16.640625 7.03125 -16.640625 L 1.921875 -16.640625 C 1.71875 -16.640625 1.5625 -16.5 1.5625 -16.28125 L 1.5625 -0.359375 C 1.5625 -0.140625 1.71875 0 1.921875 0 L 4.96875 0 C 5.1875 0 5.328125 -0.140625 5.328125 -0.359375 L 5.328125 -5.734375 L 6.171875 -5.734375 L 9.578125 -0.234375 C 9.671875 -0.078125 9.8125 0 10 0 L 13.265625 0 C 13.546875 0 13.671875 -0.171875 13.5 -0.421875 Z M 5.328125 -13.3125 L 6.9375 -13.3125 C 8.203125 -13.3125 9.359375 -12.90625 9.359375 -11.171875 C 9.359375 -9.453125 8.203125 -9.046875 6.9375 -9.046875 L 5.328125 -9.046875 Z M 5.328125 -13.3125 "/>
</g>
</g>
<clipPath id="clip-0">
<path clip-rule="nonzero" d="M 0.457031 0 L 841.324219 0 L 841.324219 594.554688 L 0.457031 594.554688 Z M 0.457031 0 "/>
</clipPath>
<clipPath id="clip-1">
<path clip-rule="nonzero" d="M 291.617188 256.578125 L 564.339844 256.578125 L 564.339844 325.589844 L 291.617188 325.589844 Z M 291.617188 256.578125 "/>
</clipPath>
<clipPath id="clip-2">
<path clip-rule="nonzero" d="M 291.617188 256.578125 L 564.339844 256.578125 L 564.339844 325.589844 L 291.617188 325.589844 Z M 291.617188 256.578125 "/>
</clipPath>
</defs>
<g clip-path="url(#clip-0)">
<path fill-rule="nonzero" fill="rgb(15.699768%, 27.799988%, 48.599243%)" fill-opacity="1" d="M 0.457031 594.554688 L 841.324219 594.554688 L 841.324219 0 L 0.457031 0 Z M 0.457031 594.554688 "/>
</g>
<g clip-path="url(#clip-1)">
<path fill-rule="nonzero" fill="rgb(100%, 100%, 100%)" fill-opacity="1" d="M 550.140625 325.589844 L 305.796875 325.589844 C 297.96875 325.589844 291.597656 319.21875 291.597656 311.390625 L 291.597656 270.777344 C 291.597656 262.949219 297.96875 256.578125 305.796875 256.578125 L 564.339844 256.578125 L 564.339844 311.390625 C 564.339844 319.21875 557.96875 325.589844 550.140625 325.589844 "/>
</g>
<path fill-rule="nonzero" fill="rgb(92.683411%, 11.282349%, 15.184021%)" fill-opacity="1" d="M 492.710938 304.40625 L 492.710938 281.035156 C 492.710938 280.566406 492.164062 280.320312 491.8125 280.625 L 488.5625 281.824219 C 488.210938 282.132812 487.660156 281.882812 487.660156 281.414062 L 487.660156 274.960938 C 487.660156 274.804688 487.730469 274.65625 487.847656 274.550781 L 492.558594 272.082031 C 492.65625 271.996094 492.785156 271.949219 492.914062 271.949219 L 499.769531 271.949219 C 500.070312 271.949219 500.3125 272.191406 500.3125 272.492188 L 500.3125 304.40625 C 500.3125 304.707031 500.070312 304.949219 499.769531 304.949219 L 493.253906 304.949219 C 492.953125 304.949219 492.710938 304.707031 492.710938 304.40625 "/>
<path fill-rule="nonzero" fill="rgb(92.683411%, 11.282349%, 15.184021%)" fill-opacity="1" d="M 504.390625 304.40625 L 504.390625 298.300781 C 504.390625 298.164062 504.441406 298.035156 504.535156 297.933594 L 516.347656 285.113281 C 517.554688 283.816406 518.015625 282.980469 518.015625 281.589844 C 518.015625 279.78125 516.996094 278.53125 515.050781 278.53125 C 513.761719 278.53125 512.230469 279.089844 512.015625 281.210938 C 511.988281 281.5 511.761719 281.730469 511.472656 281.730469 L 504.953125 281.730469 C 504.644531 281.730469 504.390625 281.472656 504.402344 281.164062 C 504.679688 275.035156 509.472656 271.671875 515.050781 271.671875 C 521.167969 271.671875 525.617188 275.425781 525.617188 281.636719 C 525.617188 285.113281 524.179688 286.964844 521.539062 289.746094 L 514.527344 297.175781 C 514.199219 297.519531 514.445312 298.089844 514.921875 298.089844 L 525.074219 298.089844 C 525.375 298.089844 525.617188 298.332031 525.617188 298.632812 L 525.617188 304.40625 C 525.617188 304.707031 525.375 304.949219 525.074219 304.949219 L 504.933594 304.949219 C 504.632812 304.949219 504.390625 304.707031 504.390625 304.40625 "/>
<path fill-rule="nonzero" fill="rgb(92.683411%, 11.282349%, 15.184021%)" fill-opacity="1" d="M 538.199219 305.226562 C 532.871094 305.226562 527.496094 302.457031 527.222656 295.457031 C 527.210938 295.152344 527.46875 294.890625 527.773438 294.890625 L 534.300781 294.890625 C 534.589844 294.890625 534.808594 295.121094 534.839844 295.40625 C 535.046875 297.382812 536.445312 298.367188 538.199219 298.367188 C 540.191406 298.367188 541.582031 297.210938 541.582031 294.84375 C 541.582031 292.851562 540.097656 291.371094 538.058594 291.371094 L 536.992188 291.371094 L 536.992188 284.789062 L 538.058594 284.789062 C 540.328125 284.789062 541.210938 283.167969 541.210938 281.683594 C 541.210938 279.597656 539.773438 278.53125 538.199219 278.53125 C 536.753906 278.53125 535.425781 279.464844 535.214844 281.15625 C 535.179688 281.425781 534.976562 281.636719 534.703125 281.636719 L 528.148438 281.636719 C 527.839844 281.636719 527.582031 281.375 527.597656 281.066406 C 527.878906 275.199219 532.492188 271.671875 538.199219 271.671875 C 544.316406 271.671875 548.8125 275.75 548.8125 281.453125 C 548.8125 284.632812 547.449219 286.378906 545.984375 287.476562 C 545.699219 287.691406 545.691406 288.109375 545.972656 288.328125 C 547.597656 289.597656 549.179688 291.5625 549.179688 295.078125 C 549.179688 301.984375 543.992188 305.226562 538.199219 305.226562 "/>
<path fill-rule="nonzero" fill="rgb(27.464294%, 27.458191%, 28.900146%)" fill-opacity="1" d="M 322.058594 286.847656 C 321.566406 285.714844 320.480469 284.78125 318.558594 284.78125 C 316.640625 284.78125 315.554688 285.714844 315.0625 286.847656 C 314.824219 287.320312 314.707031 287.8125 314.652344 288.28125 C 314.613281 288.621094 314.886719 288.917969 315.230469 288.917969 L 321.886719 288.917969 C 322.230469 288.917969 322.503906 288.621094 322.464844 288.28125 C 322.414062 287.8125 322.292969 287.320312 322.058594 286.847656 M 315.25 294.289062 C 314.886719 294.289062 314.613281 294.621094 314.675781 294.980469 C 314.992188 296.859375 316.617188 298.429688 319.296875 298.429688 C 321.835938 298.429688 323.089844 297.785156 324.359375 296.605469 C 324.589844 296.390625 324.945312 296.390625 325.167969 296.613281 L 329.179688 300.625 C 329.410156 300.851562 329.40625 301.230469 329.171875 301.453125 C 326.601562 303.898438 323.96875 305.226562 319.296875 305.226562 C 313.4375 305.226562 306.683594 303.109375 306.683594 291.675781 C 306.683594 283.003906 311.613281 278.128906 318.558594 278.128906 C 326.246094 278.128906 330.484375 283.746094 330.484375 290.691406 L 330.484375 293.710938 C 330.484375 294.03125 330.226562 294.289062 329.90625 294.289062 Z M 315.25 294.289062 "/>
<path fill-rule="nonzero" fill="rgb(27.464294%, 27.458191%, 28.900146%)" fill-opacity="1" d="M 345.117188 294.289062 L 341.027344 294.289062 C 339.449219 294.289062 338.464844 295.175781 338.464844 296.40625 C 338.464844 297.589844 339.351562 298.625 341.125 298.625 C 342.703125 298.625 343.441406 298.476562 344.328125 297.640625 C 344.917969 297.097656 345.117188 296.261719 345.117188 294.980469 Z M 345.890625 304.933594 C 345.574219 304.933594 345.3125 304.671875 345.3125 304.355469 L 345.3125 302.765625 C 343.6875 304.390625 342.207031 305.179688 339.402344 305.179688 C 336.738281 305.179688 334.523438 304.292969 333.042969 302.8125 C 331.515625 301.285156 330.730469 299.070312 330.730469 296.605469 C 330.730469 292.613281 333.4375 288.917969 339.746094 288.917969 L 345.117188 288.917969 L 345.117188 288.230469 C 345.117188 285.816406 343.933594 284.925781 341.125 284.925781 C 339.269531 284.925781 338.367188 285.324219 337.277344 286.324219 C 337.054688 286.53125 336.703125 286.515625 336.488281 286.300781 L 332.28125 282.09375 C 332.050781 281.867188 332.054688 281.480469 332.292969 281.257812 C 334.839844 278.878906 337.273438 278.128906 341.519531 278.128906 C 349.105469 278.128906 353.195312 281.28125 353.195312 287.734375 L 353.195312 304.355469 C 353.195312 304.671875 352.9375 304.933594 352.617188 304.933594 Z M 345.890625 304.933594 "/>
<path fill-rule="nonzero" fill="rgb(27.464294%, 27.458191%, 28.900146%)" fill-opacity="1" d="M 365.367188 305.226562 C 361.53125 305.226562 357.792969 305.046875 354.269531 301.800781 C 354.03125 301.582031 354.027344 301.195312 354.257812 300.964844 L 358.667969 296.550781 C 358.886719 296.332031 359.230469 296.335938 359.464844 296.539062 C 361.613281 298.378906 364.21875 298.378906 365.515625 298.378906 C 366.695312 298.378906 368.960938 298.035156 368.960938 296.652344 C 368.960938 295.914062 368.617188 295.128906 367.039062 294.980469 L 362.953125 294.585938 C 358.371094 294.140625 355.265625 292.070312 355.265625 286.898438 C 355.265625 281.035156 360.535156 278.128906 365.808594 278.128906 C 369.90625 278.128906 373.253906 278.699219 375.8125 280.964844 C 376.058594 281.179688 376.058594 281.574219 375.828125 281.808594 L 371.660156 285.976562 C 371.445312 286.191406 371.113281 286.1875 370.875 286.003906 C 369.523438 284.980469 367.53125 284.78125 365.660156 284.78125 C 363.691406 284.78125 363.050781 285.714844 363.050781 286.308594 C 363.050781 286.601562 362.953125 287.589844 364.773438 287.785156 L 368.863281 288.179688 C 374.433594 288.722656 376.847656 292.023438 376.847656 296.257812 C 376.847656 302.519531 371.523438 305.226562 365.367188 305.226562 "/>
<path fill-rule="nonzero" fill="rgb(27.464294%, 27.458191%, 28.900146%)" fill-opacity="1" d="M 414.785156 294.289062 L 410.695312 294.289062 C 409.117188 294.289062 408.132812 295.175781 408.132812 296.40625 C 408.132812 297.589844 409.019531 298.625 410.792969 298.625 C 412.371094 298.625 413.109375 298.476562 413.996094 297.640625 C 414.585938 297.097656 414.785156 296.261719 414.785156 294.980469 Z M 415.558594 304.933594 C 415.238281 304.933594 414.980469 304.671875 414.980469 304.355469 L 414.980469 302.765625 C 413.355469 304.390625 411.875 305.179688 409.070312 305.179688 C 406.40625 305.179688 404.191406 304.292969 402.710938 302.8125 C 401.183594 301.285156 400.398438 299.070312 400.398438 296.605469 C 400.398438 292.613281 403.105469 288.917969 409.414062 288.917969 L 414.785156 288.917969 L 414.785156 288.230469 C 414.785156 285.816406 413.601562 284.925781 410.792969 284.925781 C 408.9375 284.925781 408.035156 285.324219 406.945312 286.324219 C 406.722656 286.53125 406.371094 286.515625 406.15625 286.300781 L 401.949219 282.09375 C 401.71875 281.867188 401.722656 281.480469 401.960938 281.257812 C 404.507812 278.878906 406.941406 278.128906 411.1875 278.128906 C 418.773438 278.128906 422.863281 281.28125 422.863281 287.734375 L 422.863281 304.355469 C 422.863281 304.671875 422.605469 304.933594 422.285156 304.933594 Z M 415.558594 304.933594 "/>
<path fill-rule="nonzero" fill="rgb(27.464294%, 27.458191%, 28.900146%)" fill-opacity="1" d="M 439.703125 304.933594 C 439.382812 304.933594 439.125 304.671875 439.125 304.355469 L 439.125 302.761719 C 437.496094 304.390625 435.082031 305.226562 432.964844 305.226562 C 430.453125 305.226562 428.429688 304.390625 427.003906 302.960938 C 424.738281 300.695312 424.339844 298.183594 424.339844 295.371094 L 424.339844 279 C 424.339844 278.683594 424.601562 278.421875 424.917969 278.421875 L 431.84375 278.421875 C 432.164062 278.421875 432.421875 278.683594 432.421875 279 L 432.421875 294.289062 C 432.421875 297.34375 434.589844 297.933594 435.675781 297.933594 C 436.757812 297.933594 438.925781 297.34375 438.925781 294.289062 L 438.925781 279 C 438.925781 278.683594 439.183594 278.421875 439.503906 278.421875 L 446.429688 278.421875 C 446.746094 278.421875 447.007812 278.683594 447.007812 279 L 447.007812 304.355469 C 447.007812 304.671875 446.746094 304.933594 446.429688 304.933594 Z M 439.703125 304.933594 "/>
<path fill-rule="nonzero" fill="rgb(27.464294%, 27.458191%, 28.900146%)" fill-opacity="1" d="M 458.980469 304.933594 C 453.117188 304.933594 450.75 300.742188 450.75 297.097656 L 450.75 284.632812 L 448.914062 284.632812 C 448.59375 284.632812 448.335938 284.371094 448.335938 284.054688 L 448.335938 279 C 448.335938 278.683594 448.59375 278.421875 448.914062 278.421875 L 450.75 278.421875 L 450.75 272.449219 C 450.75 272.128906 451.007812 271.871094 451.328125 271.871094 L 458.253906 271.871094 C 458.574219 271.871094 458.832031 272.128906 458.832031 272.449219 L 458.832031 278.421875 L 462.441406 278.421875 C 462.761719 278.421875 463.019531 278.683594 463.019531 279 L 463.019531 284.054688 C 463.019531 284.371094 462.761719 284.632812 462.441406 284.632812 L 458.832031 284.632812 L 458.832031 296.507812 C 458.832031 297.542969 459.375 298.132812 460.457031 298.132812 L 462.441406 298.132812 C 462.761719 298.132812 463.019531 298.390625 463.019531 298.710938 L 463.019531 304.355469 C 463.019531 304.671875 462.761719 304.933594 462.441406 304.933594 Z M 458.980469 304.933594 "/>
<path fill-rule="nonzero" fill="rgb(27.464294%, 27.458191%, 28.900146%)" fill-opacity="1" d="M 477.75 286.160156 C 477.257812 285.667969 476.570312 285.421875 475.582031 285.421875 C 474.597656 285.421875 473.90625 285.667969 473.414062 286.160156 C 472.378906 287.195312 472.230469 289.066406 472.230469 291.675781 C 472.230469 294.289062 472.378906 296.160156 473.414062 297.195312 C 473.90625 297.6875 474.597656 297.933594 475.582031 297.933594 C 476.570312 297.933594 477.257812 297.6875 477.75 297.195312 C 478.785156 296.160156 478.933594 294.289062 478.933594 291.675781 C 478.933594 289.066406 478.785156 287.195312 477.75 286.160156 M 484.105469 301.828125 C 482.53125 303.503906 479.867188 305.226562 475.582031 305.226562 C 471.296875 305.226562 468.636719 303.503906 467.058594 301.828125 C 464.839844 299.414062 464.152344 296.902344 464.152344 291.675781 C 464.152344 286.503906 464.839844 283.941406 467.058594 281.527344 C 468.636719 279.851562 471.296875 278.128906 475.582031 278.128906 C 479.867188 278.128906 482.53125 279.851562 484.105469 281.527344 C 486.324219 283.941406 487.015625 286.503906 487.015625 291.675781 C 487.015625 296.902344 486.324219 299.414062 484.105469 301.828125 "/>
<path fill-rule="nonzero" fill="rgb(27.464294%, 27.458191%, 28.900146%)" fill-opacity="1" d="M 391.351562 306.566406 C 390.808594 308.089844 390.117188 309.226562 389.28125 310.0625 C 387.703125 311.738281 385.292969 312.28125 382.929688 312.28125 L 380.453125 312.28125 C 380.132812 312.28125 379.875 312.023438 379.875 311.703125 L 379.875 305.566406 C 379.875 305.246094 380.132812 304.988281 380.453125 304.988281 L 381.597656 304.988281 C 383.027344 304.988281 384.359375 304.253906 384.957031 302.761719 C 384.957031 302.761719 385.085938 302.480469 384.957031 302.136719 L 376.496094 279.207031 C 376.355469 278.828125 376.636719 278.429688 377.039062 278.429688 L 384.265625 278.429688 C 384.515625 278.429688 384.734375 278.589844 384.8125 278.828125 L 388.605469 290.453125 C 388.78125 290.988281 389.539062 290.984375 389.707031 290.445312 L 393.328125 278.835938 C 393.402344 278.59375 393.625 278.429688 393.878906 278.429688 L 401.097656 278.429688 C 401.5 278.429688 401.78125 278.828125 401.640625 279.207031 Z M 391.351562 306.566406 "/>
<g clip-path="url(#clip-2)">
<path fill-rule="nonzero" fill="rgb(97.78595%, 87.280273%, 15.30304%)" fill-opacity="1" d="M 305.796875 261.742188 C 300.816406 261.742188 296.761719 265.796875 296.761719 270.777344 L 296.761719 311.390625 C 296.761719 316.371094 300.816406 320.425781 305.796875 320.425781 L 550.140625 320.425781 C 555.121094 320.425781 559.175781 316.371094 559.175781 311.390625 L 559.175781 261.742188 Z M 550.140625 325.589844 L 305.796875 325.589844 C 297.96875 325.589844 291.597656 319.21875 291.597656 311.390625 L 291.597656 270.777344 C 291.597656 262.949219 297.96875 256.578125 305.796875 256.578125 L 564.339844 256.578125 L 564.339844 311.390625 C 564.339844 319.21875 557.96875 325.589844 550.140625 325.589844 "/>
</g>
<g fill="rgb(100%, 100%, 100%)" fill-opacity="1">
<use xlink:href="#glyph-0-0" x="338.126328" y="401.229308"/>
<use xlink:href="#glyph-0-1" x="350.41598" y="401.229308"/>
<use xlink:href="#glyph-0-2" x="366.057357" y="401.229308"/>
<use xlink:href="#glyph-0-3" x="377.515021" y="401.229308"/>
<use xlink:href="#glyph-0-4" x="381.41348" y="401.229308"/>
<use xlink:href="#glyph-0-2" x="394.820374" y="401.229308"/>
<use xlink:href="#glyph-0-5" x="406.278039" y="401.229308"/>
</g>
<g fill="rgb(100%, 100%, 100%)" fill-opacity="1">
<use xlink:href="#glyph-0-0" x="418.116041" y="401.229308"/>
<use xlink:href="#glyph-0-3" x="430.405694" y="401.229308"/>
<use xlink:href="#glyph-0-6" x="434.304152" y="401.229308"/>
</g>
<g fill="rgb(100%, 100%, 100%)" fill-opacity="1">
<use xlink:href="#glyph-0-7" x="456.31618" y="401.229308"/>
</g>
<g fill="rgb(100%, 100%, 100%)" fill-opacity="1">
<use xlink:href="#glyph-0-8" x="469.390279" y="401.229308"/>
<use xlink:href="#glyph-0-3" x="483.748016" y="401.229308"/>
<use xlink:href="#glyph-0-0" x="487.646475" y="401.229308"/>
</g>
<g fill="rgb(100%, 100%, 100%)" fill-opacity="1">
<use xlink:href="#glyph-0-9" x="498.509862" y="401.229308"/>
</g>
<g fill="rgb(100%, 100%, 100%)" fill-opacity="1">
<use xlink:href="#glyph-0-3" x="517.811986" y="401.229308"/>
</g>
<g fill="rgb(100%, 100%, 100%)" fill-opacity="1">
<use xlink:href="#glyph-0-3" x="520.994516" y="401.229308"/>
</g>
<g fill="rgb(100%, 100%, 100%)" fill-opacity="1">
<use xlink:href="#glyph-0-4" x="355.788147" y="425.000396"/>
<use xlink:href="#glyph-0-10" x="369.195041" y="425.000396"/>
<use xlink:href="#glyph-0-8" x="384.265911" y="425.000396"/>
<use xlink:href="#glyph-0-3" x="398.623648" y="425.000396"/>
<use xlink:href="#glyph-0-7" x="402.522107" y="425.000396"/>
</g>
<g fill="rgb(100%, 100%, 100%)" fill-opacity="1">
<use xlink:href="#glyph-0-11" x="418.327504" y="425.000396"/>
<use xlink:href="#glyph-0-12" x="434.349217" y="425.000396"/>
<use xlink:href="#glyph-0-3" x="450.180762" y="425.000396"/>
<use xlink:href="#glyph-0-5" x="454.079221" y="425.000396"/>
<use xlink:href="#glyph-0-2" x="466.630356" y="425.000396"/>
<use xlink:href="#glyph-0-13" x="478.08802" y="425.000396"/>
<use xlink:href="#glyph-0-13" x="488.761239" y="425.000396"/>
</g>
<g fill="rgb(100%, 100%, 100%)" fill-opacity="1">
<use xlink:href="#glyph-0-10" x="369.765047" y="448.771485"/>
<use xlink:href="#glyph-0-5" x="384.835917" y="448.771485"/>
<use xlink:href="#glyph-0-2" x="397.387052" y="448.771485"/>
<use xlink:href="#glyph-0-12" x="408.844717" y="448.771485"/>
<use xlink:href="#glyph-0-3" x="424.676262" y="448.771485"/>
<use xlink:href="#glyph-0-14" x="428.57472" y="448.771485"/>
</g>
<g fill="rgb(100%, 100%, 100%)" fill-opacity="1">
<use xlink:href="#glyph-0-7" x="444.002157" y="448.771485"/>
<use xlink:href="#glyph-0-15" x="459.928786" y="448.771485"/>
</g>
<g fill="rgb(100%, 100%, 100%)" fill-opacity="1">
<use xlink:href="#glyph-0-5" x="472.907801" y="448.771485"/>
</g>
</svg>
